<svg xmlns="http://www.w3.org/2000/svg" width="24" height="24" viewBox="0 0 24 24" fill="none">
<path d="M14.4701 12L21.9907 4.49132L21.991 4.49104C22.3201 4.16189 22.505 3.71547 22.505 3.24999C22.505 2.7845 22.3201 2.33808 21.991 2.00893C21.6618 1.67979 21.2154 1.49487 20.7499 1.49487C20.2844 1.49487 19.838 1.67979 19.5089 2.00893L19.5086 2.00922L11.9999 9.52982L4.49126 2.00921L4.49098 2.00893C4.16183 1.67979 3.71541 1.49487 3.24992 1.49487C2.78444 1.49487 2.33802 1.67979 2.00887 2.00893C1.67972 2.33808 1.49481 2.7845 1.49481 3.24999C1.49481 3.71547 1.67972 4.16189 2.00887 4.49104L2.00915 4.49132L9.52976 12L2.01032 19.5075C2.0101 19.5077 2.00988 19.5079 2.00966 19.5081C1.84595 19.6707 1.71599 19.864 1.62726 20.077C1.53842 20.2902 1.49268 20.519 1.49268 20.75C1.49268 20.981 1.53842 21.2097 1.62726 21.423C1.71585 21.6356 1.84553 21.8287 2.00887 21.991C2.17125 22.1544 2.36429 22.2841 2.57691 22.3726C2.79017 22.4615 3.01891 22.5072 3.24992 22.5072C3.48094 22.5072 3.70968 22.4615 3.92293 22.3726C4.13584 22.2839 4.3291 22.154 4.49162 21.9904C4.49189 21.9901 4.49216 21.9899 4.49242 21.9896L11.9999 14.4702L19.5074 21.9896C19.5076 21.9898 19.5078 21.99 19.5081 21.9902C19.6706 22.1539 19.8639 22.2839 20.0769 22.3726C20.2902 22.4615 20.5189 22.5072 20.7499 22.5072C20.9809 22.5072 21.2097 22.4615 21.4229 22.3726C21.6356 22.2841 21.8286 22.1544 21.991 21.991C22.1543 21.8287 22.284 21.6356 22.3726 21.423C22.4614 21.2097 22.5072 20.981 22.5072 20.75C22.5072 20.519 22.4614 20.2902 22.3726 20.077C22.2839 19.864 22.1539 19.6707 21.9902 19.5081C21.99 19.5079 21.9897 19.5077 21.9895 19.5075L14.4701 12Z" fill="#4A72FF" stroke="#4A72FF"/>
</svg>